<svg width="783" height="399" viewBox="0 0 783 399" fill="none" xmlns="http://www.w3.org/2000/svg">
<path d="M175.032 20C175.965 20 176.699 20.2667 177.232 20.8C177.765 21.3333 178.032 22.0667 178.032 23V49.2C178.032 50.1333 177.765 50.8667 177.232 51.4C176.699 51.9333 175.965 52.2 175.032 52.2H151.432C150.632 52.2 150.232 52.6 150.232 53.4V157C150.232 157.933 149.965 158.667 149.432 159.2C148.899 159.733 148.165 160 147.232 160H115.632C114.699 160 113.965 159.733 113.432 159.2C112.899 158.667 112.632 157.933 112.632 157V53.4C112.632 52.6 112.232 52.2 111.432 52.2H88.432C87.4987 52.2 86.7654 51.9333 86.232 51.4C85.6987 50.8667 85.432 50.1333 85.432 49.2V23C85.432 22.0667 85.6987 21.3333 86.232 20.8C86.7654 20.2667 87.4987 20 88.432 20H175.032ZM235.97 160C233.97 160 232.903 159.067 232.77 157.2L230.57 142.2C230.57 141.933 230.436 141.667 230.17 141.4C229.903 141.133 229.57 141 229.17 141H211.57C211.17 141 210.836 141.133 210.57 141.4C210.303 141.667 210.17 141.933 210.17 142.2L208.17 157.2C208.036 159.067 206.97 160 204.97 160H173.57C171.436 160 170.57 158.933 170.97 156.8L199.37 22.6C199.77 20.8667 200.903 20 202.77 20H239.17C241.036 20 242.17 20.8667 242.57 22.6L270.97 156.8V157.6C270.97 159.2 270.036 160 268.17 160H235.97ZM214.57 111C214.57 111.8 214.903 112.2 215.57 112.2H224.97C225.903 112.2 226.236 111.8 225.97 111L220.57 75C220.436 74.4667 220.236 74.2 219.97 74.2C219.703 74.2 219.503 74.4667 219.37 75L214.57 111ZM282.22 160C281.286 160 280.553 159.733 280.02 159.2C279.486 158.667 279.22 157.933 279.22 157V23C279.22 22.0667 279.486 21.3333 280.02 20.8C280.553 20.2667 281.286 20 282.22 20H313.82C314.753 20 315.486 20.2667 316.02 20.8C316.553 21.3333 316.82 22.0667 316.82 23V126.6C316.82 127.4 317.22 127.8 318.02 127.8H357.02C357.953 127.8 358.686 128.067 359.22 128.6C359.753 129.133 360.02 129.867 360.02 130.8V157C360.02 157.933 359.753 158.667 359.22 159.2C358.686 159.733 357.953 160 357.02 160H282.22ZM371.477 160C370.544 160 369.811 159.733 369.277 159.2C368.744 158.667 368.477 157.933 368.477 157V23C368.477 22.0667 368.744 21.3333 369.277 20.8C369.811 20.2667 370.544 20 371.477 20H403.077C404.011 20 404.744 20.2667 405.277 20.8C405.811 21.3333 406.077 22.0667 406.077 23V62.6C406.077 63.1333 406.211 63.4667 406.477 63.6C406.877 63.6 407.211 63.3333 407.477 62.8L424.277 22.4C424.944 20.8 426.144 20 427.877 20H460.877C461.944 20 462.744 20.3333 463.277 21C463.811 21.6667 463.811 22.5333 463.277 23.6L435.077 82.6C434.944 83.1333 434.944 83.6667 435.077 84.2L464.077 156.6C464.211 157 464.277 157.467 464.277 158C464.277 159.333 463.411 160 461.677 160H428.477C426.744 160 425.544 159.2 424.877 157.6L409.477 116.6C409.344 115.933 409.077 115.6 408.677 115.6C408.411 115.6 408.144 115.933 407.877 116.6L406.277 120.6C406.144 120.867 406.077 121.4 406.077 122.2V157C406.077 157.933 405.811 158.667 405.277 159.2C404.744 159.733 404.011 160 403.077 160H371.477ZM599.837 20C600.77 20 601.503 20.2667 602.037 20.8C602.57 21.3333 602.837 22.0667 602.837 23V49.2C602.837 50.1333 602.57 50.8667 602.037 51.4C601.503 51.9333 600.77 52.2 599.837 52.2H576.237C575.437 52.2 575.037 52.6 575.037 53.4V157C575.037 157.933 574.77 158.667 574.237 159.2C573.703 159.733 572.97 160 572.037 160H540.437C539.503 160 538.77 159.733 538.237 159.2C537.703 158.667 537.437 157.933 537.437 157V53.4C537.437 52.6 537.037 52.2 536.237 52.2H513.237C512.303 52.2 511.57 51.9333 511.037 51.4C510.503 50.8667 510.237 50.1333 510.237 49.2V23C510.237 22.0667 510.503 21.3333 511.037 20.8C511.57 20.2667 512.303 20 513.237 20H599.837ZM652.693 161.6C639.226 161.6 628.426 157.733 620.293 150C612.293 142.267 608.293 131.867 608.293 118.8V61.2C608.293 48.1333 612.293 37.7333 620.293 30C628.426 22.2667 639.226 18.4 652.693 18.4C666.16 18.4 676.893 22.2667 684.893 30C693.026 37.7333 697.093 48.1333 697.093 61.2V118.8C697.093 131.867 693.026 142.267 684.893 150C676.893 157.733 666.16 161.6 652.693 161.6ZM652.693 129.4C654.826 129.4 656.493 128.6 657.693 127C658.893 125.4 659.493 123.2 659.493 120.4V59.6C659.493 56.8 658.893 54.6 657.693 53C656.493 51.4 654.826 50.6 652.693 50.6C650.56 50.6 648.893 51.4 647.693 53C646.493 54.6 645.893 56.8 645.893 59.6V120.4C645.893 123.2 646.493 125.4 647.693 127C648.893 128.6 650.56 129.4 652.693 129.4ZM34.8938 319.6C33.9604 319.6 33.2271 319.333 32.6938 318.8C32.1604 318.267 31.8938 317.533 31.8938 316.6V270.6C31.8938 269.8 31.8271 269.267 31.6938 269L3.69375 183.4C3.56042 183.133 3.49375 182.733 3.49375 182.2C3.49375 180.733 4.36042 180 6.09375 180H39.2938C41.1604 180 42.2938 180.867 42.6938 182.6L50.0938 222C50.2271 222.533 50.4938 222.8 50.8938 222.8C51.2938 222.8 51.5604 222.533 51.6938 222L59.0938 182.6C59.4938 180.867 60.6271 180 62.4938 180H95.6938C96.7604 180 97.4938 180.333 97.8938 181C98.2938 181.533 98.3604 182.333 98.0938 183.4L69.6938 269C69.5604 269.267 69.4938 269.8 69.4938 270.6V316.6C69.4938 317.533 69.2271 318.267 68.6938 318.8C68.1604 319.333 67.4271 319.6 66.4938 319.6H34.8938ZM143.806 321.6C130.34 321.6 119.54 317.733 111.406 310C103.406 302.267 99.4063 291.867 99.4063 278.8V221.2C99.4063 208.133 103.406 197.733 111.406 190C119.54 182.267 130.34 178.4 143.806 178.4C157.273 178.4 168.006 182.267 176.006 190C184.14 197.733 188.206 208.133 188.206 221.2V278.8C188.206 291.867 184.14 302.267 176.006 310C168.006 317.733 157.273 321.6 143.806 321.6ZM143.806 289.4C145.94 289.4 147.606 288.6 148.806 287C150.006 285.4 150.606 283.2 150.606 280.4V219.6C150.606 216.8 150.006 214.6 148.806 213C147.606 211.4 145.94 210.6 143.806 210.6C141.673 210.6 140.006 211.4 138.806 213C137.606 214.6 137.006 216.8 137.006 219.6V280.4C137.006 283.2 137.606 285.4 138.806 287C140.006 288.6 141.673 289.4 143.806 289.4ZM240.481 321.6C231.815 321.6 224.215 319.8 217.681 316.2C211.148 312.6 206.081 307.533 202.481 301C198.881 294.467 197.081 286.933 197.081 278.4V183C197.081 182.067 197.348 181.333 197.881 180.8C198.415 180.267 199.148 180 200.081 180H231.681C232.615 180 233.348 180.267 233.881 180.8C234.415 181.333 234.681 182.067 234.681 183V282C234.681 284.267 235.215 286.067 236.281 287.4C237.348 288.733 238.748 289.4 240.481 289.4C242.215 289.4 243.548 288.733 244.481 287.4C245.548 286.067 246.081 284.267 246.081 282V183C246.081 182.067 246.348 181.333 246.881 180.8C247.415 180.267 248.148 180 249.081 180H280.681C281.615 180 282.348 180.267 282.881 180.8C283.415 181.333 283.681 182.067 283.681 183V278.4C283.681 286.933 281.881 294.467 278.281 301C274.681 307.533 269.615 312.6 263.081 316.2C256.548 319.8 249.015 321.6 240.481 321.6ZM348.37 320C346.637 320 345.57 319.133 345.17 317.4L332.97 267.2C332.704 266.533 332.437 266.2 332.17 266.2C331.637 266.2 331.37 266.6 331.37 267.4V317C331.37 317.933 331.104 318.667 330.57 319.2C330.037 319.733 329.304 320 328.37 320H296.77C295.837 320 295.104 319.733 294.57 319.2C294.037 318.667 293.77 317.933 293.77 317V183C293.77 182.067 294.037 181.333 294.57 180.8C295.104 180.267 295.837 180 296.77 180H341.77C349.77 180 356.837 181.933 362.97 185.8C369.237 189.533 374.104 194.8 377.57 201.6C381.037 208.267 382.77 215.933 382.77 224.6C382.77 231.933 381.504 238.533 378.97 244.4C376.437 250.133 372.77 254.8 367.97 258.4C367.437 258.8 367.237 259.333 367.37 260L383.57 316.6C383.704 316.867 383.77 317.2 383.77 317.6C383.77 319.2 382.837 320 380.97 320H348.37ZM332.57 212.2C331.77 212.2 331.37 212.6 331.37 213.4V236.4C331.37 237.2 331.77 237.6 332.57 237.6H335.17C338.104 237.6 340.504 236.533 342.37 234.4C344.237 232.133 345.17 229 345.17 225C345.17 220.867 344.237 217.733 342.37 215.6C340.637 213.333 338.237 212.2 335.17 212.2H332.57ZM474.456 321.6C461.256 321.6 450.656 317.733 442.656 310C434.656 302.267 430.656 291.933 430.656 279V220.6C430.656 207.667 434.59 197.4 442.456 189.8C450.456 182.2 461.123 178.4 474.456 178.4C487.656 178.4 498.256 182.2 506.256 189.8C514.256 197.4 518.256 207.667 518.256 220.6V221.6C518.256 222.533 517.99 223.333 517.456 224C516.923 224.533 516.19 224.8 515.256 224.8L483.656 225.8C481.656 225.8 480.656 224.867 480.656 223V218C480.656 215.733 480.056 213.933 478.856 212.6C477.79 211.267 476.323 210.6 474.456 210.6C472.59 210.6 471.056 211.267 469.856 212.6C468.79 213.933 468.256 215.733 468.256 218V282.2C468.256 284.467 468.79 286.267 469.856 287.6C471.056 288.8 472.59 289.4 474.456 289.4C476.323 289.4 477.79 288.8 478.856 287.6C480.056 286.267 480.656 284.467 480.656 282.2V276.8C480.656 274.933 481.656 274 483.656 274L515.256 275C516.19 275 516.923 275.333 517.456 276C517.99 276.533 518.256 277.267 518.256 278.2V279C518.256 287.533 516.39 295.067 512.656 301.6C509.056 308 503.923 312.933 497.256 316.4C490.723 319.867 483.123 321.6 474.456 321.6ZM587.239 320C585.239 320 584.172 319.067 584.039 317.2L581.839 302.2C581.839 301.933 581.706 301.667 581.439 301.4C581.172 301.133 580.839 301 580.439 301H562.839C562.439 301 562.106 301.133 561.839 301.4C561.572 301.667 561.439 301.933 561.439 302.2L559.439 317.2C559.306 319.067 558.239 320 556.239 320H524.839C522.706 320 521.839 318.933 522.239 316.8L550.639 182.6C551.039 180.867 552.172 180 554.039 180H590.439C592.306 180 593.439 180.867 593.839 182.6L622.239 316.8V317.6C622.239 319.2 621.306 320 619.439 320H587.239ZM565.839 271C565.839 271.8 566.172 272.2 566.839 272.2H576.239C577.172 272.2 577.506 271.8 577.239 271L571.839 235C571.706 234.467 571.506 234.2 571.239 234.2C570.972 234.2 570.772 234.467 570.639 235L565.839 271ZM685.089 320C683.356 320 682.289 319.133 681.889 317.4L669.689 267.2C669.422 266.533 669.156 266.2 668.889 266.2C668.356 266.2 668.089 266.6 668.089 267.4V317C668.089 317.933 667.822 318.667 667.289 319.2C666.756 319.733 666.022 320 665.089 320H633.489C632.556 320 631.822 319.733 631.289 319.2C630.756 318.667 630.489 317.933 630.489 317V183C630.489 182.067 630.756 181.333 631.289 180.8C631.822 180.267 632.556 180 633.489 180H678.489C686.489 180 693.556 181.933 699.689 185.8C705.956 189.533 710.822 194.8 714.289 201.6C717.756 208.267 719.489 215.933 719.489 224.6C719.489 231.933 718.222 238.533 715.689 244.4C713.156 250.133 709.489 254.8 704.689 258.4C704.156 258.8 703.956 259.333 704.089 260L720.289 316.6C720.422 316.867 720.489 317.2 720.489 317.6C720.489 319.2 719.556 320 717.689 320H685.089ZM669.289 212.2C668.489 212.2 668.089 212.6 668.089 213.4V236.4C668.089 237.2 668.489 237.6 669.289 237.6H671.889C674.822 237.6 677.222 236.533 679.089 234.4C680.956 232.133 681.889 229 681.889 225C681.889 220.867 680.956 217.733 679.089 215.6C677.356 213.333 674.956 212.2 671.889 212.2H669.289ZM740.936 270.4C740.003 270.4 739.203 270.133 738.536 269.6C738.003 269.067 737.736 268.333 737.736 267.4L734.136 183C734.136 181 735.069 180 736.936 180H768.536C770.403 180 771.336 181 771.336 183L767.736 267.4C767.736 268.333 767.403 269.067 766.736 269.6C766.203 270.133 765.469 270.4 764.536 270.4H740.936ZM753.136 320C747.669 320 743.136 318.267 739.536 314.8C736.069 311.2 734.336 306.667 734.336 301.2C734.336 295.6 736.069 291.067 739.536 287.6C743.136 284.133 747.669 282.4 753.136 282.4C758.603 282.4 763.069 284.133 766.536 287.6C770.136 291.067 771.936 295.6 771.936 301.2C771.936 306.533 770.136 311 766.536 314.6C763.069 318.2 758.603 320 753.136 320Z" fill="white"/>
<path d="M46.679 386.576C43.031 386.576 40.071 385.568 37.799 383.552C35.559 381.504 34.375 379.056 34.247 376.208H39.863C40.055 377.84 40.807 379.104 42.119 380C43.463 380.896 44.967 381.344 46.631 381.344C48.295 381.344 49.655 380.96 50.711 380.192C51.799 379.392 52.343 378.336 52.343 377.024C52.343 374.72 50.775 373.056 47.639 372.032L43.463 370.64C37.895 368.88 35.111 365.6 35.111 360.8C35.111 357.888 36.103 355.584 38.087 353.888C40.103 352.192 42.727 351.344 45.959 351.344C49.319 351.344 51.991 352.32 53.975 354.272C55.959 356.192 57.063 358.464 57.287 361.088H51.671C51.319 359.584 50.599 358.464 49.511 357.728C48.423 356.96 47.207 356.576 45.863 356.576C44.391 356.576 43.175 356.944 42.215 357.68C41.255 358.384 40.759 359.328 40.727 360.512C40.727 361.728 41.095 362.72 41.831 363.488C42.567 364.224 43.735 364.848 45.335 365.36L49.559 366.704C55.191 368.528 58.007 371.904 58.007 376.832C58.007 379.712 56.951 382.064 54.839 383.888C52.759 385.68 50.039 386.576 46.679 386.576ZM74.4781 386.48C70.8621 386.48 67.8541 385.28 65.4541 382.88C63.0861 380.448 61.9021 377.488 61.9021 374C61.9021 370.512 63.0861 367.568 65.4541 365.168C67.8541 362.736 70.8621 361.52 74.4781 361.52C77.5821 361.52 80.2221 362.384 82.3981 364.112C84.6061 365.84 86.0301 368.064 86.6701 370.784H81.1021C80.6221 369.44 79.7901 368.368 78.6061 367.568C77.4541 366.736 76.0781 366.32 74.4781 366.32C72.3661 366.32 70.6381 367.04 69.2941 368.48C67.9501 369.92 67.2781 371.76 67.2781 374C67.2781 376.24 67.9501 378.08 69.2941 379.52C70.6381 380.96 72.3661 381.68 74.4781 381.68C76.0781 381.68 77.4541 381.28 78.6061 380.48C79.7901 379.648 80.6221 378.56 81.1021 377.216H86.6701C86.0301 379.936 84.6061 382.16 82.3981 383.888C80.2221 385.616 77.5821 386.48 74.4781 386.48ZM101.501 386.48C98.2374 386.48 95.4854 385.264 93.2454 382.832C91.0374 380.4 89.9334 377.456 89.9334 374C89.9334 370.544 91.0374 367.6 93.2454 365.168C95.4854 362.736 98.2374 361.52 101.501 361.52C103.133 361.52 104.637 361.888 106.013 362.624C107.389 363.328 108.445 364.192 109.181 365.216V362H114.461V386H109.181V382.784C108.445 383.808 107.389 384.688 106.013 385.424C104.637 386.128 103.133 386.48 101.501 386.48ZM97.3254 379.472C98.6694 380.944 100.381 381.68 102.461 381.68C104.541 381.68 106.253 380.944 107.597 379.472C108.941 378 109.613 376.176 109.613 374C109.613 371.824 108.941 370 107.597 368.528C106.253 367.056 104.541 366.32 102.461 366.32C100.381 366.32 98.6694 367.056 97.3254 368.528C95.9814 370 95.3094 371.824 95.3094 374C95.3094 376.176 95.9814 378 97.3254 379.472ZM121.615 386V362H126.895V365.264C128.399 362.768 130.831 361.52 134.191 361.52C136.975 361.52 139.199 362.432 140.863 364.256C142.527 366.08 143.359 368.512 143.359 371.552V386H138.079V372.416C138.079 370.496 137.631 369.008 136.735 367.952C135.839 366.864 134.623 366.32 133.087 366.32C131.263 366.32 129.775 367.008 128.623 368.384C127.471 369.76 126.895 371.696 126.895 374.192V386H121.615ZM171.031 386.24C168.599 386.24 166.615 385.568 165.079 384.224C163.575 382.848 162.823 380.864 162.823 378.272V366.704H157.831V362H162.823V355.328H168.103V362H174.967V366.704H168.103V377.408C168.103 378.88 168.423 379.936 169.062 380.576C169.703 381.184 170.727 381.488 172.135 381.488C173.287 381.488 174.231 381.328 174.967 381.008V385.712C173.815 386.064 172.503 386.24 171.031 386.24ZM185.254 386H179.974V350H185.254V365.264C186.758 362.768 189.19 361.52 192.55 361.52C195.334 361.52 197.558 362.432 199.222 364.256C200.886 366.08 201.718 368.512 201.718 371.552V386H196.438V372.416C196.438 370.496 195.99 369.008 195.094 367.952C194.198 366.864 192.982 366.32 191.446 366.32C189.622 366.32 188.134 367.008 186.982 368.384C185.83 369.76 185.254 371.696 185.254 374.192V386ZM219.082 386.48C215.498 386.48 212.554 385.312 210.25 382.976C207.946 380.608 206.794 377.616 206.794 374C206.794 370.384 207.93 367.408 210.202 365.072C212.474 362.704 215.45 361.52 219.13 361.52C222.842 361.52 225.834 362.816 228.106 365.408C230.378 367.968 231.386 371.264 231.13 375.296H212.026C212.09 377.152 212.794 378.704 214.138 379.952C215.482 381.2 217.194 381.824 219.274 381.824C222.218 381.824 224.234 380.704 225.322 378.464H230.842C230.106 380.8 228.698 382.72 226.618 384.224C224.538 385.728 222.026 386.48 219.082 386.48ZM218.986 365.936C217.258 365.936 215.77 366.432 214.522 367.424C213.306 368.384 212.522 369.76 212.17 371.552H225.466C225.082 369.696 224.298 368.304 223.114 367.376C221.93 366.416 220.554 365.936 218.986 365.936ZM258.697 386.48C255.081 386.48 252.073 385.28 249.673 382.88C247.305 380.448 246.121 377.488 246.121 374C246.121 370.512 247.305 367.568 249.673 365.168C252.073 362.736 255.081 361.52 258.697 361.52C261.801 361.52 264.441 362.384 266.617 364.112C268.825 365.84 270.249 368.064 270.889 370.784H265.321C264.841 369.44 264.009 368.368 262.825 367.568C261.673 366.736 260.297 366.32 258.697 366.32C256.585 366.32 254.857 367.04 253.513 368.48C252.169 369.92 251.497 371.76 251.497 374C251.497 376.24 252.169 378.08 253.513 379.52C254.857 380.96 256.585 381.68 258.697 381.68C260.297 381.68 261.673 381.28 262.825 380.48C264.009 379.648 264.841 378.56 265.321 377.216H270.889C270.249 379.936 268.825 382.16 266.617 383.888C264.441 385.616 261.801 386.48 258.697 386.48ZM295.656 382.88C293.256 385.28 290.28 386.48 286.728 386.48C283.176 386.48 280.184 385.28 277.752 382.88C275.352 380.448 274.152 377.488 274.152 374C274.152 370.512 275.352 367.568 277.752 365.168C280.184 362.736 283.176 361.52 286.728 361.52C290.28 361.52 293.256 362.736 295.656 365.168C298.088 367.568 299.304 370.512 299.304 374C299.304 377.488 298.088 380.448 295.656 382.88ZM286.728 381.584C288.808 381.584 290.52 380.864 291.864 379.424C293.24 377.952 293.928 376.144 293.928 374C293.928 371.856 293.24 370.064 291.864 368.624C290.52 367.152 288.808 366.416 286.728 366.416C284.616 366.416 282.872 367.152 281.496 368.624C280.152 370.064 279.48 371.856 279.48 374C279.48 376.144 280.152 377.952 281.496 379.424C282.872 380.864 284.616 381.584 286.728 381.584ZM314.455 386.48C311.191 386.48 308.439 385.264 306.199 382.832C303.991 380.4 302.887 377.456 302.887 374C302.887 370.544 303.991 367.6 306.199 365.168C308.439 362.736 311.191 361.52 314.455 361.52C316.087 361.52 317.591 361.888 318.967 362.624C320.343 363.328 321.399 364.192 322.135 365.216V350H327.415V386H322.135V382.784C321.399 383.808 320.343 384.688 318.967 385.424C317.591 386.128 316.087 386.48 314.455 386.48ZM310.279 379.472C311.623 380.944 313.335 381.68 315.415 381.68C317.495 381.68 319.207 380.944 320.551 379.472C321.895 378 322.567 376.176 322.567 374C322.567 371.824 321.895 370 320.551 368.528C319.207 367.056 317.495 366.32 315.415 366.32C313.335 366.32 311.623 367.056 310.279 368.528C308.935 370 308.263 371.824 308.263 374C308.263 376.176 308.935 378 310.279 379.472ZM345.176 386.48C341.592 386.48 338.648 385.312 336.344 382.976C334.04 380.608 332.888 377.616 332.888 374C332.888 370.384 334.024 367.408 336.296 365.072C338.568 362.704 341.544 361.52 345.224 361.52C348.936 361.52 351.928 362.816 354.2 365.408C356.472 367.968 357.48 371.264 357.224 375.296H338.12C338.184 377.152 338.888 378.704 340.232 379.952C341.576 381.2 343.288 381.824 345.368 381.824C348.312 381.824 350.328 380.704 351.416 378.464H356.936C356.2 380.8 354.792 382.72 352.712 384.224C350.632 385.728 348.12 386.48 345.176 386.48ZM345.08 365.936C343.352 365.936 341.864 366.432 340.616 367.424C339.4 368.384 338.616 369.76 338.264 371.552H351.56C351.176 369.696 350.392 368.304 349.208 367.376C348.024 366.416 346.648 365.936 345.08 365.936ZM365.43 386.384C364.31 386.384 363.334 385.984 362.502 385.184C361.702 384.352 361.302 383.36 361.302 382.208C361.302 381.088 361.702 380.112 362.502 379.28C363.334 378.448 364.31 378.032 365.43 378.032C366.582 378.032 367.558 378.448 368.358 379.28C369.19 380.112 369.606 381.088 369.606 382.208C369.606 383.36 369.19 384.352 368.358 385.184C367.558 385.984 366.582 386.384 365.43 386.384ZM387.27 351.92H392.406L404.31 368.048L416.262 351.92H421.398V386H415.734V361.568L404.358 377.024L392.886 361.52V386H387.27V351.92ZM439.254 386.48C435.67 386.48 432.726 385.312 430.422 382.976C428.118 380.608 426.966 377.616 426.966 374C426.966 370.384 428.102 367.408 430.374 365.072C432.646 362.704 435.622 361.52 439.302 361.52C443.014 361.52 446.006 362.816 448.278 365.408C450.55 367.968 451.558 371.264 451.302 375.296H432.198C432.262 377.152 432.966 378.704 434.31 379.952C435.654 381.2 437.366 381.824 439.446 381.824C442.39 381.824 444.406 380.704 445.494 378.464H451.014C450.278 380.8 448.87 382.72 446.79 384.224C444.71 385.728 442.198 386.48 439.254 386.48ZM439.158 365.936C437.43 365.936 435.942 366.432 434.694 367.424C433.478 368.384 432.694 369.76 432.342 371.552H445.638C445.254 369.696 444.47 368.304 443.286 367.376C442.102 366.416 440.726 365.936 439.158 365.936ZM467.332 386.48C463.748 386.48 460.804 385.312 458.5 382.976C456.196 380.608 455.044 377.616 455.044 374C455.044 370.384 456.18 367.408 458.452 365.072C460.724 362.704 463.7 361.52 467.38 361.52C471.092 361.52 474.084 362.816 476.356 365.408C478.628 367.968 479.636 371.264 479.38 375.296H460.276C460.34 377.152 461.044 378.704 462.388 379.952C463.732 381.2 465.444 381.824 467.524 381.824C470.468 381.824 472.484 380.704 473.572 378.464H479.092C478.356 380.8 476.948 382.72 474.868 384.224C472.788 385.728 470.276 386.48 467.332 386.48ZM467.236 365.936C465.508 365.936 464.02 366.432 462.772 367.424C461.556 368.384 460.772 369.76 460.42 371.552H473.716C473.332 369.696 472.548 368.304 471.364 367.376C470.18 366.416 468.804 365.936 467.236 365.936ZM494.796 386.24C492.364 386.24 490.38 385.568 488.844 384.224C487.34 382.848 486.588 380.864 486.588 378.272V366.704H481.596V362H486.588V355.328H491.868V362H498.732V366.704H491.868V377.408C491.868 378.88 492.188 379.936 492.828 380.576C493.468 381.184 494.492 381.488 495.9 381.488C497.052 381.488 497.996 381.328 498.732 381.008V385.712C497.58 386.064 496.268 386.24 494.796 386.24ZM531.26 386.576C526.172 386.576 521.932 384.896 518.54 381.536C515.18 378.144 513.5 373.952 513.5 368.96C513.5 363.968 515.18 359.792 518.54 356.432C521.932 353.04 526.172 351.344 531.26 351.344C535.292 351.344 538.812 352.496 541.82 354.8C544.86 357.072 546.812 359.92 547.676 363.344H541.628C540.892 361.392 539.58 359.808 537.692 358.592C535.804 357.376 533.66 356.768 531.26 356.768C527.74 356.768 524.844 357.936 522.572 360.272C520.3 362.608 519.164 365.504 519.164 368.96C519.164 372.416 520.3 375.312 522.572 377.648C524.844 379.984 527.74 381.152 531.26 381.152C533.66 381.152 535.804 380.544 537.692 379.328C539.58 378.112 540.892 376.528 541.628 374.576H547.676C546.812 378 544.86 380.864 541.82 383.168C538.812 385.44 535.292 386.576 531.26 386.576ZM552.724 386V350H558.004V386H552.724ZM573.691 386.48C570.939 386.48 568.763 385.568 567.163 383.744C565.563 381.888 564.763 379.424 564.763 376.352V362H570.043V375.488C570.043 377.408 570.459 378.928 571.291 380.048C572.123 381.136 573.307 381.68 574.843 381.68C576.635 381.68 578.059 381.008 579.115 379.664C580.171 378.288 580.699 376.336 580.699 373.808V362H585.979V386H580.699V382.736C579.291 385.232 576.955 386.48 573.691 386.48ZM603.499 386.24C601.067 386.24 599.083 385.568 597.547 384.224C596.043 382.848 595.291 380.864 595.291 378.272V366.704H590.299V362H595.291V355.328H600.571V362H607.435V366.704H600.571V377.408C600.571 378.88 600.891 379.936 601.531 380.576C602.171 381.184 603.195 381.488 604.603 381.488C605.755 381.488 606.699 381.328 607.435 381.008V385.712C606.283 386.064 604.971 386.24 603.499 386.24ZM622.963 386.48C619.347 386.48 616.339 385.28 613.939 382.88C611.571 380.448 610.387 377.488 610.387 374C610.387 370.512 611.571 367.568 613.939 365.168C616.339 362.736 619.347 361.52 622.963 361.52C626.067 361.52 628.707 362.384 630.883 364.112C633.091 365.84 634.515 368.064 635.155 370.784H629.587C629.107 369.44 628.275 368.368 627.091 367.568C625.939 366.736 624.563 366.32 622.963 366.32C620.851 366.32 619.123 367.04 617.779 368.48C616.435 369.92 615.763 371.76 615.763 374C615.763 376.24 616.435 378.08 617.779 379.52C619.123 380.96 620.851 381.68 622.963 381.68C624.563 381.68 625.939 381.28 627.091 380.48C628.275 379.648 629.107 378.56 629.587 377.216H635.155C634.515 379.936 633.091 382.16 630.883 383.888C628.707 385.616 626.067 386.48 622.963 386.48ZM645.426 386H640.146V350H645.426V365.264C646.93 362.768 649.362 361.52 652.722 361.52C655.506 361.52 657.73 362.432 659.394 364.256C661.058 366.08 661.89 368.512 661.89 371.552V386H656.61V372.416C656.61 370.496 656.162 369.008 655.266 367.952C654.37 366.864 653.154 366.32 651.618 366.32C649.794 366.32 648.306 367.008 647.154 368.384C646.002 369.76 645.426 371.696 645.426 374.192V386ZM668.895 386V351.92H680.655C683.631 351.92 686.063 352.832 687.951 354.656C689.871 356.48 690.831 358.704 690.831 361.328C690.831 364.144 689.775 366.336 687.663 367.904C691.311 369.408 693.135 372.112 693.135 376.016C693.135 378.864 692.095 381.248 690.015 383.168C687.967 385.056 685.343 386 682.143 386H668.895ZM674.511 380.864H681.999C683.791 380.864 685.183 380.416 686.175 379.52C687.167 378.624 687.663 377.44 687.663 375.968C687.663 374.528 687.167 373.36 686.175 372.464C685.183 371.536 683.791 371.072 681.999 371.072H674.511V380.864ZM674.511 366.272H680.367C681.871 366.272 683.071 365.84 683.967 364.976C684.863 364.112 685.311 363.008 685.311 361.664C685.311 360.384 684.863 359.296 683.967 358.4C683.071 357.504 681.871 357.056 680.367 357.056H674.511V366.272ZM718.328 382.88C715.928 385.28 712.952 386.48 709.4 386.48C705.848 386.48 702.856 385.28 700.424 382.88C698.024 380.448 696.824 377.488 696.824 374C696.824 370.512 698.024 367.568 700.424 365.168C702.856 362.736 705.848 361.52 709.4 361.52C712.952 361.52 715.928 362.736 718.328 365.168C720.76 367.568 721.976 370.512 721.976 374C721.976 377.488 720.76 380.448 718.328 382.88ZM709.4 381.584C711.48 381.584 713.192 380.864 714.536 379.424C715.912 377.952 716.6 376.144 716.6 374C716.6 371.856 715.912 370.064 714.536 368.624C713.192 367.152 711.48 366.416 709.4 366.416C707.288 366.416 705.544 367.152 704.168 368.624C702.824 370.064 702.152 371.856 702.152 374C702.152 376.144 702.824 377.952 704.168 379.424C705.544 380.864 707.288 381.584 709.4 381.584ZM737.234 386.24C734.802 386.24 732.818 385.568 731.282 384.224C729.778 382.848 729.026 380.864 729.026 378.272V366.704H724.034V362H729.026V355.328H734.306V362H741.17V366.704H734.306V377.408C734.306 378.88 734.626 379.936 735.266 380.576C735.906 381.184 736.93 381.488 738.338 381.488C739.49 381.488 740.434 381.328 741.17 381.008V385.712C740.018 386.064 738.706 386.24 737.234 386.24Z" fill="white"/>
</svg>
